# Bombero - low poly para Flash Point Fire Rescue
mtllib FireRescue_Bombero.mtl
v -0.11813 -0.37921 -0.02643
v -0.11813 -0.12029 -0.02643
v -0.01564 -0.12029 -0.02643
v -0.01564 -0.37921 -0.02643
v -0.11813 -0.37921 0.08685
v -0.01564 -0.37921 0.08685
v -0.01564 -0.12029 0.08685
v -0.11813 -0.12029 0.08685
v -0.11813 -0.37921 -0.02643
v -0.01564 -0.37921 -0.02643
v -0.01564 -0.37921 0.08685
v -0.11813 -0.37921 0.08685
v -0.01564 -0.12029 -0.02643
v -0.11813 -0.12029 -0.02643
v -0.11813 -0.12029 0.08685
v -0.01564 -0.12029 0.08685
v -0.01564 -0.37921 -0.02643
v -0.01564 -0.12029 -0.02643
v -0.01564 -0.12029 0.08685
v -0.01564 -0.37921 0.08685
v -0.11813 -0.37921 -0.02643
v -0.11813 -0.37921 0.08685
v -0.11813 -0.12029 0.08685
v -0.11813 -0.12029 -0.02643
v 0.01564 -0.37921 -0.02643
v 0.01564 -0.12029 -0.02643
v 0.11813 -0.12029 -0.02643
v 0.11813 -0.37921 -0.02643
v 0.01564 -0.37921 0.08685
v 0.11813 -0.37921 0.08685
v 0.11813 -0.12029 0.08685
v 0.01564 -0.12029 0.08685
v 0.01564 -0.37921 -0.02643
v 0.11813 -0.37921 -0.02643
v 0.11813 -0.37921 0.08685
v 0.01564 -0.37921 0.08685
v 0.11813 -0.12029 -0.02643
v 0.01564 -0.12029 -0.02643
v 0.01564 -0.12029 0.08685
v 0.11813 -0.12029 0.08685
v 0.11813 -0.37921 -0.02643
v 0.11813 -0.12029 -0.02643
v 0.11813 -0.12029 0.08685
v 0.11813 -0.37921 0.08685
v 0.01564 -0.37921 -0.02643
v 0.01564 -0.37921 0.08685
v 0.01564 -0.12029 0.08685
v 0.01564 -0.12029 -0.02643
v -0.12353 -0.39000 -0.02967
v -0.12353 -0.33606 -0.02967
v -0.01025 -0.33606 -0.02967
v -0.01025 -0.39000 -0.02967
v -0.12353 -0.39000 0.11598
v -0.01025 -0.39000 0.11598
v -0.01025 -0.33606 0.11598
v -0.12353 -0.33606 0.11598
v -0.12353 -0.39000 -0.02967
v -0.01025 -0.39000 -0.02967
v -0.01025 -0.39000 0.11598
v -0.12353 -0.39000 0.11598
v -0.01025 -0.33606 -0.02967
v -0.12353 -0.33606 -0.02967
v -0.12353 -0.33606 0.11598
v -0.01025 -0.33606 0.11598
v -0.01025 -0.39000 -0.02967
v -0.01025 -0.33606 -0.02967
v -0.01025 -0.33606 0.11598
v -0.01025 -0.39000 0.11598
v -0.12353 -0.39000 -0.02967
v -0.12353 -0.39000 0.11598
v -0.12353 -0.33606 0.11598
v -0.12353 -0.33606 -0.02967
v 0.01025 -0.39000 -0.02967
v 0.01025 -0.33606 -0.02967
v 0.12353 -0.33606 -0.02967
v 0.12353 -0.39000 -0.02967
v 0.01025 -0.39000 0.11598
v 0.12353 -0.39000 0.11598
v 0.12353 -0.33606 0.11598
v 0.01025 -0.33606 0.11598
v 0.01025 -0.39000 -0.02967
v 0.12353 -0.39000 -0.02967
v 0.12353 -0.39000 0.11598
v 0.01025 -0.39000 0.11598
v 0.12353 -0.33606 -0.02967
v 0.01025 -0.33606 -0.02967
v 0.01025 -0.33606 0.11598
v 0.12353 -0.33606 0.11598
v 0.12353 -0.39000 -0.02967
v 0.12353 -0.33606 -0.02967
v 0.12353 -0.33606 0.11598
v 0.12353 -0.39000 0.11598
v 0.01025 -0.39000 -0.02967
v 0.01025 -0.39000 0.11598
v 0.01025 -0.33606 0.11598
v 0.01025 -0.33606 -0.02967
v -0.12676 -0.12568 -0.05071
v -0.12676 0.15481 -0.05071
v 0.12676 0.15481 -0.05071
v 0.12676 -0.12568 -0.05071
v -0.12676 -0.12568 0.11112
v 0.12676 -0.12568 0.11112
v 0.12676 0.15481 0.11112
v -0.12676 0.15481 0.11112
v -0.12676 -0.12568 -0.05071
v 0.12676 -0.12568 -0.05071
v 0.12676 -0.12568 0.11112
v -0.12676 -0.12568 0.11112
v 0.12676 0.15481 -0.05071
v -0.12676 0.15481 -0.05071
v -0.12676 0.15481 0.11112
v 0.12676 0.15481 0.11112
v 0.12676 -0.12568 -0.05071
v 0.12676 0.15481 -0.05071
v 0.12676 0.15481 0.11112
v 0.12676 -0.12568 0.11112
v -0.12676 -0.12568 -0.05071
v -0.12676 -0.12568 0.11112
v -0.12676 0.15481 0.11112
v -0.12676 0.15481 -0.05071
v -0.16183 0.09548 -0.07228
v -0.16183 0.18178 -0.07228
v 0.16183 0.18178 -0.07228
v 0.16183 0.09548 -0.07228
v -0.16183 0.09548 0.13270
v 0.16183 0.09548 0.13270
v 0.16183 0.18178 0.13270
v -0.16183 0.18178 0.13270
v -0.16183 0.09548 -0.07228
v 0.16183 0.09548 -0.07228
v 0.16183 0.09548 0.13270
v -0.16183 0.09548 0.13270
v 0.16183 0.18178 -0.07228
v -0.16183 0.18178 -0.07228
v -0.16183 0.18178 0.13270
v 0.16183 0.18178 0.13270
v 0.16183 0.09548 -0.07228
v 0.16183 0.18178 -0.07228
v 0.16183 0.18178 0.13270
v 0.16183 0.09548 0.13270
v -0.16183 0.09548 -0.07228
v -0.16183 0.09548 0.13270
v -0.16183 0.18178 0.13270
v -0.16183 0.18178 -0.07228
v -0.12946 -0.05826 0.11004
v -0.12946 -0.00971 0.11004
v 0.12946 -0.00971 0.11004
v 0.12946 -0.05826 0.11004
v -0.12946 -0.05826 0.12083
v 0.12946 -0.05826 0.12083
v 0.12946 -0.00971 0.12083
v -0.12946 -0.00971 0.12083
v -0.12946 -0.05826 0.11004
v 0.12946 -0.05826 0.11004
v 0.12946 -0.05826 0.12083
v -0.12946 -0.05826 0.12083
v 0.12946 -0.00971 0.11004
v -0.12946 -0.00971 0.11004
v -0.12946 -0.00971 0.12083
v 0.12946 -0.00971 0.12083
v 0.12946 -0.05826 0.11004
v 0.12946 -0.00971 0.11004
v 0.12946 -0.00971 0.12083
v 0.12946 -0.05826 0.12083
v -0.12946 -0.05826 0.11004
v -0.12946 -0.05826 0.12083
v -0.12946 -0.00971 0.12083
v -0.12946 -0.00971 0.11004
v -0.23249 -0.10950 -0.02104
v -0.23249 0.13863 -0.02104
v -0.15158 0.13863 -0.02104
v -0.15158 -0.10950 -0.02104
v -0.23249 -0.10950 0.08145
v -0.15158 -0.10950 0.08145
v -0.15158 0.13863 0.08145
v -0.23249 0.13863 0.08145
v -0.23249 -0.10950 -0.02104
v -0.15158 -0.10950 -0.02104
v -0.15158 -0.10950 0.08145
v -0.23249 -0.10950 0.08145
v -0.15158 0.13863 -0.02104
v -0.23249 0.13863 -0.02104
v -0.23249 0.13863 0.08145
v -0.15158 0.13863 0.08145
v -0.15158 -0.10950 -0.02104
v -0.15158 0.13863 -0.02104
v -0.15158 0.13863 0.08145
v -0.15158 -0.10950 0.08145
v -0.23249 -0.10950 -0.02104
v -0.23249 -0.10950 0.08145
v -0.23249 0.13863 0.08145
v -0.23249 0.13863 -0.02104
v 0.15158 -0.10950 -0.02104
v 0.15158 0.13863 -0.02104
v 0.23249 0.13863 -0.02104
v 0.23249 -0.10950 -0.02104
v 0.15158 -0.10950 0.08145
v 0.23249 -0.10950 0.08145
v 0.23249 0.13863 0.08145
v 0.15158 0.13863 0.08145
v 0.15158 -0.10950 -0.02104
v 0.23249 -0.10950 -0.02104
v 0.23249 -0.10950 0.08145
v 0.15158 -0.10950 0.08145
v 0.23249 0.13863 -0.02104
v 0.15158 0.13863 -0.02104
v 0.15158 0.13863 0.08145
v 0.23249 0.13863 0.08145
v 0.23249 -0.10950 -0.02104
v 0.23249 0.13863 -0.02104
v 0.23249 0.13863 0.08145
v 0.23249 -0.10950 0.08145
v 0.15158 -0.10950 -0.02104
v 0.15158 -0.10950 0.08145
v 0.15158 0.13863 0.08145
v 0.15158 0.13863 -0.02104
v -0.23411 -0.09116 -0.02266
v -0.23411 -0.06311 -0.02266
v -0.14996 -0.06311 -0.02266
v -0.14996 -0.09116 -0.02266
v -0.23411 -0.09116 0.08307
v -0.14996 -0.09116 0.08307
v -0.14996 -0.06311 0.08307
v -0.23411 -0.06311 0.08307
v -0.23411 -0.09116 -0.02266
v -0.14996 -0.09116 -0.02266
v -0.14996 -0.09116 0.08307
v -0.23411 -0.09116 0.08307
v -0.14996 -0.06311 -0.02266
v -0.23411 -0.06311 -0.02266
v -0.23411 -0.06311 0.08307
v -0.14996 -0.06311 0.08307
v -0.14996 -0.09116 -0.02266
v -0.14996 -0.06311 -0.02266
v -0.14996 -0.06311 0.08307
v -0.14996 -0.09116 0.08307
v -0.23411 -0.09116 -0.02266
v -0.23411 -0.09116 0.08307
v -0.23411 -0.06311 0.08307
v -0.23411 -0.06311 -0.02266
v 0.14996 -0.09116 -0.02266
v 0.14996 -0.06311 -0.02266
v 0.23411 -0.06311 -0.02266
v 0.23411 -0.09116 -0.02266
v 0.14996 -0.09116 0.08307
v 0.23411 -0.09116 0.08307
v 0.23411 -0.06311 0.08307
v 0.14996 -0.06311 0.08307
v 0.14996 -0.09116 -0.02266
v 0.23411 -0.09116 -0.02266
v 0.23411 -0.09116 0.08307
v 0.14996 -0.09116 0.08307
v 0.23411 -0.06311 -0.02266
v 0.14996 -0.06311 -0.02266
v 0.14996 -0.06311 0.08307
v 0.23411 -0.06311 0.08307
v 0.23411 -0.09116 -0.02266
v 0.23411 -0.06311 -0.02266
v 0.23411 -0.06311 0.08307
v 0.23411 -0.09116 0.08307
v 0.14996 -0.09116 -0.02266
v 0.14996 -0.09116 0.08307
v 0.14996 -0.06311 0.08307
v 0.14996 -0.06311 -0.02266
v -0.23627 -0.15535 -0.02373
v -0.23627 -0.09602 -0.02373
v -0.14780 -0.09602 -0.02373
v -0.14780 -0.15535 -0.02373
v -0.23627 -0.15535 0.08415
v -0.14780 -0.15535 0.08415
v -0.14780 -0.09602 0.08415
v -0.23627 -0.09602 0.08415
v -0.23627 -0.15535 -0.02373
v -0.14780 -0.15535 -0.02373
v -0.14780 -0.15535 0.08415
v -0.23627 -0.15535 0.08415
v -0.14780 -0.09602 -0.02373
v -0.23627 -0.09602 -0.02373
v -0.23627 -0.09602 0.08415
v -0.14780 -0.09602 0.08415
v -0.14780 -0.15535 -0.02373
v -0.14780 -0.09602 -0.02373
v -0.14780 -0.09602 0.08415
v -0.14780 -0.15535 0.08415
v -0.23627 -0.15535 -0.02373
v -0.23627 -0.15535 0.08415
v -0.23627 -0.09602 0.08415
v -0.23627 -0.09602 -0.02373
v 0.14780 -0.15535 -0.02373
v 0.14780 -0.09602 -0.02373
v 0.23627 -0.09602 -0.02373
v 0.23627 -0.15535 -0.02373
v 0.14780 -0.15535 0.08415
v 0.23627 -0.15535 0.08415
v 0.23627 -0.09602 0.08415
v 0.14780 -0.09602 0.08415
v 0.14780 -0.15535 -0.02373
v 0.23627 -0.15535 -0.02373
v 0.23627 -0.15535 0.08415
v 0.14780 -0.15535 0.08415
v 0.23627 -0.09602 -0.02373
v 0.14780 -0.09602 -0.02373
v 0.14780 -0.09602 0.08415
v 0.23627 -0.09602 0.08415
v 0.23627 -0.15535 -0.02373
v 0.23627 -0.09602 -0.02373
v 0.23627 -0.09602 0.08415
v 0.23627 -0.15535 0.08415
v 0.14780 -0.15535 -0.02373
v 0.14780 -0.15535 0.08415
v 0.14780 -0.09602 0.08415
v 0.14780 -0.09602 -0.02373
v -0.08091 -0.07714 -0.15643
v -0.08091 0.17100 -0.15643
v 0.08091 0.17100 -0.15643
v 0.08091 -0.07714 -0.15643
v -0.08091 -0.07714 -0.05934
v 0.08091 -0.07714 -0.05934
v 0.08091 0.17100 -0.05934
v -0.08091 0.17100 -0.05934
v -0.08091 -0.07714 -0.15643
v 0.08091 -0.07714 -0.15643
v 0.08091 -0.07714 -0.05934
v -0.08091 -0.07714 -0.05934
v 0.08091 0.17100 -0.15643
v -0.08091 0.17100 -0.15643
v -0.08091 0.17100 -0.05934
v 0.08091 0.17100 -0.05934
v 0.08091 -0.07714 -0.15643
v 0.08091 0.17100 -0.15643
v 0.08091 0.17100 -0.05934
v 0.08091 -0.07714 -0.05934
v -0.08091 -0.07714 -0.15643
v -0.08091 -0.07714 -0.05934
v -0.08091 0.17100 -0.05934
v -0.08091 0.17100 -0.15643
v -0.04585 0.17909 -0.01564
v -0.04585 0.21685 -0.01564
v 0.04585 0.21685 -0.01564
v 0.04585 0.17909 -0.01564
v -0.04585 0.17909 0.07606
v 0.04585 0.17909 0.07606
v 0.04585 0.21685 0.07606
v -0.04585 0.21685 0.07606
v -0.04585 0.17909 -0.01564
v 0.04585 0.17909 -0.01564
v 0.04585 0.17909 0.07606
v -0.04585 0.17909 0.07606
v 0.04585 0.21685 -0.01564
v -0.04585 0.21685 -0.01564
v -0.04585 0.21685 0.07606
v 0.04585 0.21685 0.07606
v 0.04585 0.17909 -0.01564
v 0.04585 0.21685 -0.01564
v 0.04585 0.21685 0.07606
v 0.04585 0.17909 0.07606
v -0.04585 0.17909 -0.01564
v -0.04585 0.17909 0.07606
v -0.04585 0.21685 0.07606
v -0.04585 0.21685 -0.01564
v -0.06203 0.21415 -0.02104
v -0.06203 0.30046 -0.02104
v 0.06203 0.30046 -0.02104
v 0.06203 0.21415 -0.02104
v -0.06203 0.21415 0.10303
v 0.06203 0.21415 0.10303
v 0.06203 0.30046 0.10303
v -0.06203 0.30046 0.10303
v -0.06203 0.21415 -0.02104
v 0.06203 0.21415 -0.02104
v 0.06203 0.21415 0.10303
v -0.06203 0.21415 0.10303
v 0.06203 0.30046 -0.02104
v -0.06203 0.30046 -0.02104
v -0.06203 0.30046 0.10303
v 0.06203 0.30046 0.10303
v 0.06203 0.21415 -0.02104
v 0.06203 0.30046 -0.02104
v 0.06203 0.30046 0.10303
v 0.06203 0.21415 0.10303
v -0.06203 0.21415 -0.02104
v -0.06203 0.21415 0.10303
v -0.06203 0.30046 0.10303
v -0.06203 0.30046 -0.02104
v 0.12083 0.29398 0.02481
v 0.10886 0.29398 0.07724
v 0.09720 0.32203 0.07162
v 0.10788 0.32203 0.02481
v 0.10886 0.29398 0.07724
v 0.07534 0.29398 0.11928
v 0.06726 0.32203 0.10916
v 0.09720 0.32203 0.07162
v 0.07534 0.29398 0.11928
v 0.02689 0.29398 0.14261
v 0.02401 0.32203 0.12999
v 0.06726 0.32203 0.10916
v 0.02689 0.29398 0.14261
v -0.02689 0.29398 0.14261
v -0.02401 0.32203 0.12999
v 0.02401 0.32203 0.12999
v -0.02689 0.29398 0.14261
v -0.07534 0.29398 0.11928
v -0.06726 0.32203 0.10916
v -0.02401 0.32203 0.12999
v -0.07534 0.29398 0.11928
v -0.10886 0.29398 0.07724
v -0.09720 0.32203 0.07162
v -0.06726 0.32203 0.10916
v -0.10886 0.29398 0.07724
v -0.12083 0.29398 0.02481
v -0.10788 0.32203 0.02481
v -0.09720 0.32203 0.07162
v -0.12083 0.29398 0.02481
v -0.10886 0.29398 -0.02761
v -0.09720 0.32203 -0.02200
v -0.10788 0.32203 0.02481
v -0.10886 0.29398 -0.02761
v -0.07534 0.29398 -0.06966
v -0.06726 0.32203 -0.05953
v -0.09720 0.32203 -0.02200
v -0.07534 0.29398 -0.06966
v -0.02689 0.29398 -0.09299
v -0.02401 0.32203 -0.08037
v -0.06726 0.32203 -0.05953
v -0.02689 0.29398 -0.09299
v 0.02689 0.29398 -0.09299
v 0.02401 0.32203 -0.08037
v -0.02401 0.32203 -0.08037
v 0.02689 0.29398 -0.09299
v 0.07534 0.29398 -0.06966
v 0.06726 0.32203 -0.05953
v 0.02401 0.32203 -0.08037
v 0.07534 0.29398 -0.06966
v 0.10886 0.29398 -0.02761
v 0.09720 0.32203 -0.02200
v 0.06726 0.32203 -0.05953
v 0.10886 0.29398 -0.02761
v 0.12083 0.29398 0.02481
v 0.10788 0.32203 0.02481
v 0.09720 0.32203 -0.02200
v 0.10886 0.29398 -0.02761
v 0.07534 0.29398 -0.06966
v 0.02689 0.29398 -0.09299
v -0.02689 0.29398 -0.09299
v -0.07534 0.29398 -0.06966
v -0.10886 0.29398 -0.02761
v -0.12083 0.29398 0.02481
v -0.10886 0.29398 0.07724
v -0.07534 0.29398 0.11928
v -0.02689 0.29398 0.14261
v 0.02689 0.29398 0.14261
v 0.07534 0.29398 0.11928
v 0.10886 0.29398 0.07724
v 0.12083 0.29398 0.02481
v 0.10788 0.32203 0.02481
v 0.09720 0.32203 0.07162
v 0.06726 0.32203 0.10916
v 0.02401 0.32203 0.12999
v -0.02401 0.32203 0.12999
v -0.06726 0.32203 0.10916
v -0.09720 0.32203 0.07162
v -0.10788 0.32203 0.02481
v -0.09720 0.32203 -0.02200
v -0.06726 0.32203 -0.05953
v -0.02401 0.32203 -0.08037
v 0.02401 0.32203 -0.08037
v 0.06726 0.32203 -0.05953
v 0.09720 0.32203 -0.02200
v 0.08631 0.31232 0.02481
v 0.07776 0.31232 0.06226
v 0.06610 0.36842 0.05664
v 0.07336 0.36842 0.02481
v 0.07776 0.31232 0.06226
v 0.05381 0.31232 0.09229
v 0.04574 0.36842 0.08217
v 0.06610 0.36842 0.05664
v 0.05381 0.31232 0.09229
v 0.01921 0.31232 0.10896
v 0.01632 0.36842 0.09633
v 0.04574 0.36842 0.08217
v 0.01921 0.31232 0.10896
v -0.01921 0.31232 0.10896
v -0.01632 0.36842 0.09633
v 0.01632 0.36842 0.09633
v -0.01921 0.31232 0.10896
v -0.05381 0.31232 0.09229
v -0.04574 0.36842 0.08217
v -0.01632 0.36842 0.09633
v -0.05381 0.31232 0.09229
v -0.07776 0.31232 0.06226
v -0.06610 0.36842 0.05664
v -0.04574 0.36842 0.08217
v -0.07776 0.31232 0.06226
v -0.08631 0.31232 0.02481
v -0.07336 0.36842 0.02481
v -0.06610 0.36842 0.05664
v -0.08631 0.31232 0.02481
v -0.07776 0.31232 -0.01263
v -0.06610 0.36842 -0.00702
v -0.07336 0.36842 0.02481
v -0.07776 0.31232 -0.01263
v -0.05381 0.31232 -0.04266
v -0.04574 0.36842 -0.03254
v -0.06610 0.36842 -0.00702
v -0.05381 0.31232 -0.04266
v -0.01921 0.31232 -0.05933
v -0.01632 0.36842 -0.04671
v -0.04574 0.36842 -0.03254
v -0.01921 0.31232 -0.05933
v 0.01921 0.31232 -0.05933
v 0.01632 0.36842 -0.04671
v -0.01632 0.36842 -0.04671
v 0.01921 0.31232 -0.05933
v 0.05381 0.31232 -0.04266
v 0.04574 0.36842 -0.03254
v 0.01632 0.36842 -0.04671
v 0.05381 0.31232 -0.04266
v 0.07776 0.31232 -0.01263
v 0.06610 0.36842 -0.00702
v 0.04574 0.36842 -0.03254
v 0.07776 0.31232 -0.01263
v 0.08631 0.31232 0.02481
v 0.07336 0.36842 0.02481
v 0.06610 0.36842 -0.00702
v 0.07776 0.31232 -0.01263
v 0.05381 0.31232 -0.04266
v 0.01921 0.31232 -0.05933
v -0.01921 0.31232 -0.05933
v -0.05381 0.31232 -0.04266
v -0.07776 0.31232 -0.01263
v -0.08631 0.31232 0.02481
v -0.07776 0.31232 0.06226
v -0.05381 0.31232 0.09229
v -0.01921 0.31232 0.10896
v 0.01921 0.31232 0.10896
v 0.05381 0.31232 0.09229
v 0.07776 0.31232 0.06226
v 0.08631 0.31232 0.02481
v 0.07336 0.36842 0.02481
v 0.06610 0.36842 0.05664
v 0.04574 0.36842 0.08217
v 0.01632 0.36842 0.09633
v -0.01632 0.36842 0.09633
v -0.04574 0.36842 0.08217
v -0.06610 0.36842 0.05664
v -0.07336 0.36842 0.02481
v -0.06610 0.36842 -0.00702
v -0.04574 0.36842 -0.03254
v -0.01632 0.36842 -0.04671
v 0.01632 0.36842 -0.04671
v 0.04574 0.36842 -0.03254
v 0.06610 0.36842 -0.00702
v 0.07336 0.35548 0.02481
v 0.06610 0.35548 0.05664
v 0.03305 0.39000 0.04073
v 0.03668 0.39000 0.02481
v 0.06610 0.35548 0.05664
v 0.04574 0.35548 0.08217
v 0.02287 0.39000 0.05349
v 0.03305 0.39000 0.04073
v 0.04574 0.35548 0.08217
v 0.01632 0.35548 0.09633
v 0.00816 0.39000 0.06057
v 0.02287 0.39000 0.05349
v 0.01632 0.35548 0.09633
v -0.01632 0.35548 0.09633
v -0.00816 0.39000 0.06057
v 0.00816 0.39000 0.06057
v -0.01632 0.35548 0.09633
v -0.04574 0.35548 0.08217
v -0.02287 0.39000 0.05349
v -0.00816 0.39000 0.06057
v -0.04574 0.35548 0.08217
v -0.06610 0.35548 0.05664
v -0.03305 0.39000 0.04073
v -0.02287 0.39000 0.05349
v -0.06610 0.35548 0.05664
v -0.07336 0.35548 0.02481
v -0.03668 0.39000 0.02481
v -0.03305 0.39000 0.04073
v -0.07336 0.35548 0.02481
v -0.06610 0.35548 -0.00702
v -0.03305 0.39000 0.00890
v -0.03668 0.39000 0.02481
v -0.06610 0.35548 -0.00702
v -0.04574 0.35548 -0.03254
v -0.02287 0.39000 -0.00386
v -0.03305 0.39000 0.00890
v -0.04574 0.35548 -0.03254
v -0.01632 0.35548 -0.04671
v -0.00816 0.39000 -0.01095
v -0.02287 0.39000 -0.00386
v -0.01632 0.35548 -0.04671
v 0.01632 0.35548 -0.04671
v 0.00816 0.39000 -0.01095
v -0.00816 0.39000 -0.01095
v 0.01632 0.35548 -0.04671
v 0.04574 0.35548 -0.03254
v 0.02287 0.39000 -0.00386
v 0.00816 0.39000 -0.01095
v 0.04574 0.35548 -0.03254
v 0.06610 0.35548 -0.00702
v 0.03305 0.39000 0.00890
v 0.02287 0.39000 -0.00386
v 0.06610 0.35548 -0.00702
v 0.07336 0.35548 0.02481
v 0.03668 0.39000 0.02481
v 0.03305 0.39000 0.00890
v 0.06610 0.35548 -0.00702
v 0.04574 0.35548 -0.03254
v 0.01632 0.35548 -0.04671
v -0.01632 0.35548 -0.04671
v -0.04574 0.35548 -0.03254
v -0.06610 0.35548 -0.00702
v -0.07336 0.35548 0.02481
v -0.06610 0.35548 0.05664
v -0.04574 0.35548 0.08217
v -0.01632 0.35548 0.09633
v 0.01632 0.35548 0.09633
v 0.04574 0.35548 0.08217
v 0.06610 0.35548 0.05664
v 0.07336 0.35548 0.02481
v 0.03668 0.39000 0.02481
v 0.03305 0.39000 0.04073
v 0.02287 0.39000 0.05349
v 0.00816 0.39000 0.06057
v -0.00816 0.39000 0.06057
v -0.02287 0.39000 0.05349
v -0.03305 0.39000 0.04073
v -0.03668 0.39000 0.02481
v -0.03305 0.39000 0.00890
v -0.02287 0.39000 -0.00386
v -0.00816 0.39000 -0.01095
v 0.00816 0.39000 -0.01095
v 0.02287 0.39000 -0.00386
v 0.03305 0.39000 0.00890
v -0.02481 0.29506 0.08954
v -0.02481 0.35116 0.08954
v 0.02481 0.35116 0.08954
v 0.02481 0.29506 0.08954
v -0.02481 0.29506 0.15643
v 0.02481 0.29506 0.15643
v 0.02481 0.35116 0.15643
v -0.02481 0.35116 0.15643
v -0.02481 0.29506 0.08954
v 0.02481 0.29506 0.08954
v 0.02481 0.29506 0.15643
v -0.02481 0.29506 0.15643
v 0.02481 0.35116 0.08954
v -0.02481 0.35116 0.08954
v -0.02481 0.35116 0.15643
v 0.02481 0.35116 0.15643
v 0.02481 0.29506 0.08954
v 0.02481 0.35116 0.08954
v 0.02481 0.35116 0.15643
v 0.02481 0.29506 0.15643
v -0.02481 0.29506 0.08954
v -0.02481 0.29506 0.15643
v -0.02481 0.35116 0.15643
v -0.02481 0.35116 0.08954
vn 0.00000 0.00000 -1.00000
vn 0.00000 0.00000 1.00000
vn 0.00000 -1.00000 0.00000
vn 0.00000 1.00000 0.00000
vn 1.00000 0.00000 0.00000
vn -1.00000 0.00000 0.00000
vn 0.00000 0.00000 -1.00000
vn 0.00000 0.00000 1.00000
vn 0.00000 -1.00000 0.00000
vn 0.00000 1.00000 0.00000
vn 1.00000 0.00000 0.00000
vn -1.00000 0.00000 0.00000
vn 0.00000 0.00000 -1.00000
vn 0.00000 0.00000 1.00000
vn 0.00000 -1.00000 0.00000
vn 0.00000 1.00000 0.00000
vn 1.00000 0.00000 0.00000
vn -1.00000 0.00000 0.00000
vn 0.00000 0.00000 -1.00000
vn 0.00000 0.00000 1.00000
vn 0.00000 -1.00000 0.00000
vn 0.00000 1.00000 0.00000
vn 1.00000 0.00000 0.00000
vn -1.00000 0.00000 0.00000
vn 0.00000 0.00000 -1.00000
vn 0.00000 0.00000 1.00000
vn 0.00000 -1.00000 0.00000
vn 0.00000 1.00000 0.00000
vn 1.00000 0.00000 0.00000
vn -1.00000 0.00000 0.00000
vn 0.00000 0.00000 -1.00000
vn 0.00000 0.00000 1.00000
vn 0.00000 -1.00000 0.00000
vn 0.00000 1.00000 0.00000
vn 1.00000 0.00000 0.00000
vn -1.00000 0.00000 0.00000
vn 0.00000 0.00000 -1.00000
vn 0.00000 0.00000 1.00000
vn 0.00000 -1.00000 0.00000
vn 0.00000 1.00000 0.00000
vn 1.00000 0.00000 0.00000
vn -1.00000 0.00000 0.00000
vn 0.00000 0.00000 -1.00000
vn 0.00000 0.00000 1.00000
vn 0.00000 -1.00000 0.00000
vn 0.00000 1.00000 0.00000
vn 1.00000 0.00000 0.00000
vn -1.00000 0.00000 0.00000
vn 0.00000 0.00000 -1.00000
vn 0.00000 0.00000 1.00000
vn 0.00000 -1.00000 0.00000
vn 0.00000 1.00000 0.00000
vn 1.00000 0.00000 0.00000
vn -1.00000 0.00000 0.00000
vn 0.00000 0.00000 -1.00000
vn 0.00000 0.00000 1.00000
vn 0.00000 -1.00000 0.00000
vn 0.00000 1.00000 0.00000
vn 1.00000 0.00000 0.00000
vn -1.00000 0.00000 0.00000
vn 0.00000 0.00000 -1.00000
vn 0.00000 0.00000 1.00000
vn 0.00000 -1.00000 0.00000
vn 0.00000 1.00000 0.00000
vn 1.00000 0.00000 0.00000
vn -1.00000 0.00000 0.00000
vn 0.00000 0.00000 -1.00000
vn 0.00000 0.00000 1.00000
vn 0.00000 -1.00000 0.00000
vn 0.00000 1.00000 0.00000
vn 1.00000 0.00000 0.00000
vn -1.00000 0.00000 0.00000
vn 0.00000 0.00000 -1.00000
vn 0.00000 0.00000 1.00000
vn 0.00000 -1.00000 0.00000
vn 0.00000 1.00000 0.00000
vn 1.00000 0.00000 0.00000
vn -1.00000 0.00000 0.00000
vn 0.00000 0.00000 -1.00000
vn 0.00000 0.00000 1.00000
vn 0.00000 -1.00000 0.00000
vn 0.00000 1.00000 0.00000
vn 1.00000 0.00000 0.00000
vn -1.00000 0.00000 0.00000
vn 0.00000 0.00000 -1.00000
vn 0.00000 0.00000 1.00000
vn 0.00000 -1.00000 0.00000
vn 0.00000 1.00000 0.00000
vn 1.00000 0.00000 0.00000
vn -1.00000 0.00000 0.00000
vn 0.00000 0.00000 -1.00000
vn 0.00000 0.00000 1.00000
vn 0.00000 -1.00000 0.00000
vn 0.00000 1.00000 0.00000
vn 1.00000 0.00000 0.00000
vn -1.00000 0.00000 0.00000
vn -0.88907 -0.41034 -0.20292
vn -0.71298 -0.41034 -0.56858
vn -0.39567 -0.41034 -0.82162
vn -0.00000 -0.41034 -0.91193
vn 0.39567 -0.41034 -0.82162
vn 0.71298 -0.41034 -0.56858
vn 0.88907 -0.41034 -0.20292
vn 0.88907 -0.41034 0.20292
vn 0.71298 -0.41034 0.56858
vn 0.39567 -0.41034 0.82162
vn 0.00000 -0.41034 0.91193
vn -0.39567 -0.41034 0.82162
vn -0.71298 -0.41034 0.56858
vn -0.88907 -0.41034 0.20292
vn 0.00000 1.00000 0.00000
vn 0.00000 -1.00000 0.00000
vn -0.95115 -0.21950 -0.21709
vn -0.76277 -0.21950 -0.60828
vn -0.42330 -0.21950 -0.87900
vn -0.00000 -0.21950 -0.97561
vn 0.42330 -0.21950 -0.87900
vn 0.76277 -0.21950 -0.60828
vn 0.95115 -0.21950 -0.21709
vn 0.95115 -0.21950 0.21709
vn 0.76277 -0.21950 0.60828
vn 0.42330 -0.21950 0.87900
vn 0.00000 -0.21950 0.97561
vn -0.42330 -0.21950 0.87900
vn -0.76277 -0.21950 0.60828
vn -0.95115 -0.21950 0.21709
vn 0.00000 1.00000 0.00000
vn 0.00000 -1.00000 0.00000
vn -0.67713 -0.71945 -0.15455
vn -0.54302 -0.71945 -0.43304
vn -0.30135 -0.71945 -0.62576
vn -0.00000 -0.71945 -0.69454
vn 0.30135 -0.71945 -0.62576
vn 0.54302 -0.71945 -0.43304
vn 0.67713 -0.71945 -0.15455
vn 0.67713 -0.71945 0.15455
vn 0.54302 -0.71945 0.43304
vn 0.30135 -0.71945 0.62576
vn 0.00000 -0.71945 0.69454
vn -0.30135 -0.71945 0.62576
vn -0.54302 -0.71945 0.43304
vn -0.67713 -0.71945 0.15455
vn 0.00000 1.00000 0.00000
vn 0.00000 -1.00000 0.00000
vn 0.00000 0.00000 -1.00000
vn 0.00000 0.00000 1.00000
vn 0.00000 -1.00000 0.00000
vn 0.00000 1.00000 0.00000
vn 1.00000 0.00000 0.00000
vn -1.00000 0.00000 0.00000
g cuerpo
usemtl cuerpo
f 1//1 2//1 3//1 4//1
f 5//2 6//2 7//2 8//2
f 9//3 10//3 11//3 12//3
f 13//4 14//4 15//4 16//4
f 17//5 18//5 19//5 20//5
f 21//6 22//6 23//6 24//6
f 25//7 26//7 27//7 28//7
f 29//8 30//8 31//8 32//8
f 33//9 34//9 35//9 36//9
f 37//10 38//10 39//10 40//10
f 41//11 42//11 43//11 44//11
f 45//12 46//12 47//12 48//12
g tanque
usemtl tanque
f 49//13 50//13 51//13 52//13
f 53//14 54//14 55//14 56//14
f 57//15 58//15 59//15 60//15
f 61//16 62//16 63//16 64//16
f 65//17 66//17 67//17 68//17
f 69//18 70//18 71//18 72//18
f 73//19 74//19 75//19 76//19
f 77//20 78//20 79//20 80//20
f 81//21 82//21 83//21 84//21
f 85//22 86//22 87//22 88//22
f 89//23 90//23 91//23 92//23
f 93//24 94//24 95//24 96//24
g cuerpo
usemtl cuerpo
f 97//25 98//25 99//25 100//25
f 101//26 102//26 103//26 104//26
f 105//27 106//27 107//27 108//27
f 109//28 110//28 111//28 112//28
f 113//29 114//29 115//29 116//29
f 117//30 118//30 119//30 120//30
f 121//31 122//31 123//31 124//31
f 125//32 126//32 127//32 128//32
f 129//33 130//33 131//33 132//33
f 133//34 134//34 135//34 136//34
f 137//35 138//35 139//35 140//35
f 141//36 142//36 143//36 144//36
g reflejante
usemtl reflejante
f 145//37 146//37 147//37 148//37
f 149//38 150//38 151//38 152//38
f 153//39 154//39 155//39 156//39
f 157//40 158//40 159//40 160//40
f 161//41 162//41 163//41 164//41
f 165//42 166//42 167//42 168//42
g cuerpo
usemtl cuerpo
f 169//43 170//43 171//43 172//43
f 173//44 174//44 175//44 176//44
f 177//45 178//45 179//45 180//45
f 181//46 182//46 183//46 184//46
f 185//47 186//47 187//47 188//47
f 189//48 190//48 191//48 192//48
f 193//49 194//49 195//49 196//49
f 197//50 198//50 199//50 200//50
f 201//51 202//51 203//51 204//51
f 205//52 206//52 207//52 208//52
f 209//53 210//53 211//53 212//53
f 213//54 214//54 215//54 216//54
g reflejante
usemtl reflejante
f 217//55 218//55 219//55 220//55
f 221//56 222//56 223//56 224//56
f 225//57 226//57 227//57 228//57
f 229//58 230//58 231//58 232//58
f 233//59 234//59 235//59 236//59
f 237//60 238//60 239//60 240//60
f 241//61 242//61 243//61 244//61
f 245//62 246//62 247//62 248//62
f 249//63 250//63 251//63 252//63
f 253//64 254//64 255//64 256//64
f 257//65 258//65 259//65 260//65
f 261//66 262//66 263//66 264//66
g tanque
usemtl tanque
f 265//67 266//67 267//67 268//67
f 269//68 270//68 271//68 272//68
f 273//69 274//69 275//69 276//69
f 277//70 278//70 279//70 280//70
f 281//71 282//71 283//71 284//71
f 285//72 286//72 287//72 288//72
f 289//73 290//73 291//73 292//73
f 293//74 294//74 295//74 296//74
f 297//75 298//75 299//75 300//75
f 301//76 302//76 303//76 304//76
f 305//77 306//77 307//77 308//77
f 309//78 310//78 311//78 312//78
f 313//79 314//79 315//79 316//79
f 317//80 318//80 319//80 320//80
f 321//81 322//81 323//81 324//81
f 325//82 326//82 327//82 328//82
f 329//83 330//83 331//83 332//83
f 333//84 334//84 335//84 336//84
f 337//85 338//85 339//85 340//85
f 341//86 342//86 343//86 344//86
f 345//87 346//87 347//87 348//87
f 349//88 350//88 351//88 352//88
f 353//89 354//89 355//89 356//89
f 357//90 358//90 359//90 360//90
g piel
usemtl piel
f 361//91 362//91 363//91 364//91
f 365//92 366//92 367//92 368//92
f 369//93 370//93 371//93 372//93
f 373//94 374//94 375//94 376//94
f 377//95 378//95 379//95 380//95
f 381//96 382//96 383//96 384//96
g casco
usemtl casco
f 385//97 386//97 387//97 388//97
f 389//98 390//98 391//98 392//98
f 393//99 394//99 395//99 396//99
f 397//100 398//100 399//100 400//100
f 401//101 402//101 403//101 404//101
f 405//102 406//102 407//102 408//102
f 409//103 410//103 411//103 412//103
f 413//104 414//104 415//104 416//104
f 417//105 418//105 419//105 420//105
f 421//106 422//106 423//106 424//106
f 425//107 426//107 427//107 428//107
f 429//108 430//108 431//108 432//108
f 433//109 434//109 435//109 436//109
f 437//110 438//110 439//110 440//110
f 441//111 442//111 443//111 444//111 445//111 446//111 447//111 448//111 449//111 450//111 451//111 452//111 453//111 454//111
f 455//112 456//112 457//112 458//112 459//112 460//112 461//112 462//112 463//112 464//112 465//112 466//112 467//112 468//112
f 469//113 470//113 471//113 472//113
f 473//114 474//114 475//114 476//114
f 477//115 478//115 479//115 480//115
f 481//116 482//116 483//116 484//116
f 485//117 486//117 487//117 488//117
f 489//118 490//118 491//118 492//118
f 493//119 494//119 495//119 496//119
f 497//120 498//120 499//120 500//120
f 501//121 502//121 503//121 504//121
f 505//122 506//122 507//122 508//122
f 509//123 510//123 511//123 512//123
f 513//124 514//124 515//124 516//124
f 517//125 518//125 519//125 520//125
f 521//126 522//126 523//126 524//126
f 525//127 526//127 527//127 528//127 529//127 530//127 531//127 532//127 533//127 534//127 535//127 536//127 537//127 538//127
f 539//128 540//128 541//128 542//128 543//128 544//128 545//128 546//128 547//128 548//128 549//128 550//128 551//128 552//128
f 553//129 554//129 555//129 556//129
f 557//130 558//130 559//130 560//130
f 561//131 562//131 563//131 564//131
f 565//132 566//132 567//132 568//132
f 569//133 570//133 571//133 572//133
f 573//134 574//134 575//134 576//134
f 577//135 578//135 579//135 580//135
f 581//136 582//136 583//136 584//136
f 585//137 586//137 587//137 588//137
f 589//138 590//138 591//138 592//138
f 593//139 594//139 595//139 596//139
f 597//140 598//140 599//140 600//140
f 601//141 602//141 603//141 604//141
f 605//142 606//142 607//142 608//142
f 609//143 610//143 611//143 612//143 613//143 614//143 615//143 616//143 617//143 618//143 619//143 620//143 621//143 622//143
f 623//144 624//144 625//144 626//144 627//144 628//144 629//144 630//144 631//144 632//144 633//144 634//144 635//144 636//144
f 637//145 638//145 639//145 640//145
f 641//146 642//146 643//146 644//146
f 645//147 646//147 647//147 648//147
f 649//148 650//148 651//148 652//148
f 653//149 654//149 655//149 656//149
f 657//150 658//150 659//150 660//150
