# Caja - low poly para Flash Point Fire Rescue
mtllib FireRescue_Props.mtl
v -0.14000 0.00000 -0.13000
v -0.14000 0.22000 -0.13000
v 0.14000 0.22000 -0.13000
v 0.14000 0.00000 -0.13000
v -0.14000 0.00000 0.13000
v 0.14000 0.00000 0.13000
v 0.14000 0.22000 0.13000
v -0.14000 0.22000 0.13000
v -0.14000 0.00000 -0.13000
v 0.14000 0.00000 -0.13000
v 0.14000 0.00000 0.13000
v -0.14000 0.00000 0.13000
v 0.14000 0.22000 -0.13000
v -0.14000 0.22000 -0.13000
v -0.14000 0.22000 0.13000
v 0.14000 0.22000 0.13000
v 0.14000 0.00000 -0.13000
v 0.14000 0.22000 -0.13000
v 0.14000 0.22000 0.13000
v 0.14000 0.00000 0.13000
v -0.14000 0.00000 -0.13000
v -0.14000 0.00000 0.13000
v -0.14000 0.22000 0.13000
v -0.14000 0.22000 -0.13000
v -0.03000 0.21900 -0.13000
v -0.03000 0.22500 -0.13000
v 0.03000 0.22500 -0.13000
v 0.03000 0.21900 -0.13000
v -0.03000 0.21900 0.13000
v 0.03000 0.21900 0.13000
v 0.03000 0.22500 0.13000
v -0.03000 0.22500 0.13000
v -0.03000 0.21900 -0.13000
v 0.03000 0.21900 -0.13000
v 0.03000 0.21900 0.13000
v -0.03000 0.21900 0.13000
v 0.03000 0.22500 -0.13000
v -0.03000 0.22500 -0.13000
v -0.03000 0.22500 0.13000
v 0.03000 0.22500 0.13000
v 0.03000 0.21900 -0.13000
v 0.03000 0.22500 -0.13000
v 0.03000 0.22500 0.13000
v 0.03000 0.21900 0.13000
v -0.03000 0.21900 -0.13000
v -0.03000 0.21900 0.13000
v -0.03000 0.22500 0.13000
v -0.03000 0.22500 -0.13000
vn 0.00000 0.00000 -1.00000
vn 0.00000 0.00000 1.00000
vn 0.00000 -1.00000 0.00000
vn 0.00000 1.00000 0.00000
vn 1.00000 0.00000 0.00000
vn -1.00000 0.00000 0.00000
vn 0.00000 0.00000 -1.00000
vn 0.00000 0.00000 1.00000
vn 0.00000 -1.00000 0.00000
vn 0.00000 1.00000 0.00000
vn 1.00000 0.00000 0.00000
vn -1.00000 0.00000 0.00000
g carton
usemtl carton
f 1//1 2//1 3//1 4//1
f 5//2 6//2 7//2 8//2
f 9//3 10//3 11//3 12//3
f 13//4 14//4 15//4 16//4
f 17//5 18//5 19//5 20//5
f 21//6 22//6 23//6 24//6
g cinta
usemtl cinta
f 25//7 26//7 27//7 28//7
f 29//8 30//8 31//8 32//8
f 33//9 34//9 35//9 36//9
f 37//10 38//10 39//10 40//10
f 41//11 42//11 43//11 44//11
f 45//12 46//12 47//12 48//12
