# Mesa - low poly para Flash Point Fire Rescue
mtllib FireRescue_Props.mtl
v -0.25000 0.18250 -0.17000
v -0.25000 0.21750 -0.17000
v 0.25000 0.21750 -0.17000
v 0.25000 0.18250 -0.17000
v -0.25000 0.18250 0.17000
v 0.25000 0.18250 0.17000
v 0.25000 0.21750 0.17000
v -0.25000 0.21750 0.17000
v -0.25000 0.18250 -0.17000
v 0.25000 0.18250 -0.17000
v 0.25000 0.18250 0.17000
v -0.25000 0.18250 0.17000
v 0.25000 0.21750 -0.17000
v -0.25000 0.21750 -0.17000
v -0.25000 0.21750 0.17000
v 0.25000 0.21750 0.17000
v 0.25000 0.18250 -0.17000
v 0.25000 0.21750 -0.17000
v 0.25000 0.21750 0.17000
v 0.25000 0.18250 0.17000
v -0.25000 0.18250 -0.17000
v -0.25000 0.18250 0.17000
v -0.25000 0.21750 0.17000
v -0.25000 0.21750 -0.17000
v -0.22750 0.00000 -0.14750
v -0.22750 0.19000 -0.14750
v -0.19250 0.19000 -0.14750
v -0.19250 0.00000 -0.14750
v -0.22750 0.00000 -0.11250
v -0.19250 0.00000 -0.11250
v -0.19250 0.19000 -0.11250
v -0.22750 0.19000 -0.11250
v -0.22750 0.00000 -0.14750
v -0.19250 0.00000 -0.14750
v -0.19250 0.00000 -0.11250
v -0.22750 0.00000 -0.11250
v -0.19250 0.19000 -0.14750
v -0.22750 0.19000 -0.14750
v -0.22750 0.19000 -0.11250
v -0.19250 0.19000 -0.11250
v -0.19250 0.00000 -0.14750
v -0.19250 0.19000 -0.14750
v -0.19250 0.19000 -0.11250
v -0.19250 0.00000 -0.11250
v -0.22750 0.00000 -0.14750
v -0.22750 0.00000 -0.11250
v -0.22750 0.19000 -0.11250
v -0.22750 0.19000 -0.14750
v -0.22750 0.00000 0.11250
v -0.22750 0.19000 0.11250
v -0.19250 0.19000 0.11250
v -0.19250 0.00000 0.11250
v -0.22750 0.00000 0.14750
v -0.19250 0.00000 0.14750
v -0.19250 0.19000 0.14750
v -0.22750 0.19000 0.14750
v -0.22750 0.00000 0.11250
v -0.19250 0.00000 0.11250
v -0.19250 0.00000 0.14750
v -0.22750 0.00000 0.14750
v -0.19250 0.19000 0.11250
v -0.22750 0.19000 0.11250
v -0.22750 0.19000 0.14750
v -0.19250 0.19000 0.14750
v -0.19250 0.00000 0.11250
v -0.19250 0.19000 0.11250
v -0.19250 0.19000 0.14750
v -0.19250 0.00000 0.14750
v -0.22750 0.00000 0.11250
v -0.22750 0.00000 0.14750
v -0.22750 0.19000 0.14750
v -0.22750 0.19000 0.11250
v 0.19250 0.00000 -0.14750
v 0.19250 0.19000 -0.14750
v 0.22750 0.19000 -0.14750
v 0.22750 0.00000 -0.14750
v 0.19250 0.00000 -0.11250
v 0.22750 0.00000 -0.11250
v 0.22750 0.19000 -0.11250
v 0.19250 0.19000 -0.11250
v 0.19250 0.00000 -0.14750
v 0.22750 0.00000 -0.14750
v 0.22750 0.00000 -0.11250
v 0.19250 0.00000 -0.11250
v 0.22750 0.19000 -0.14750
v 0.19250 0.19000 -0.14750
v 0.19250 0.19000 -0.11250
v 0.22750 0.19000 -0.11250
v 0.22750 0.00000 -0.14750
v 0.22750 0.19000 -0.14750
v 0.22750 0.19000 -0.11250
v 0.22750 0.00000 -0.11250
v 0.19250 0.00000 -0.14750
v 0.19250 0.00000 -0.11250
v 0.19250 0.19000 -0.11250
v 0.19250 0.19000 -0.14750
v 0.19250 0.00000 0.11250
v 0.19250 0.19000 0.11250
v 0.22750 0.19000 0.11250
v 0.22750 0.00000 0.11250
v 0.19250 0.00000 0.14750
v 0.22750 0.00000 0.14750
v 0.22750 0.19000 0.14750
v 0.19250 0.19000 0.14750
v 0.19250 0.00000 0.11250
v 0.22750 0.00000 0.11250
v 0.22750 0.00000 0.14750
v 0.19250 0.00000 0.14750
v 0.22750 0.19000 0.11250
v 0.19250 0.19000 0.11250
v 0.19250 0.19000 0.14750
v 0.22750 0.19000 0.14750
v 0.22750 0.00000 0.11250
v 0.22750 0.19000 0.11250
v 0.22750 0.19000 0.14750
v 0.22750 0.00000 0.14750
v 0.19250 0.00000 0.11250
v 0.19250 0.00000 0.14750
v 0.19250 0.19000 0.14750
v 0.19250 0.19000 0.11250
vn 0.00000 0.00000 -1.00000
vn 0.00000 0.00000 1.00000
vn 0.00000 -1.00000 0.00000
vn 0.00000 1.00000 0.00000
vn 1.00000 0.00000 0.00000
vn -1.00000 0.00000 0.00000
vn 0.00000 0.00000 -1.00000
vn 0.00000 0.00000 1.00000
vn 0.00000 -1.00000 0.00000
vn 0.00000 1.00000 0.00000
vn 1.00000 0.00000 0.00000
vn -1.00000 0.00000 0.00000
vn 0.00000 0.00000 -1.00000
vn 0.00000 0.00000 1.00000
vn 0.00000 -1.00000 0.00000
vn 0.00000 1.00000 0.00000
vn 1.00000 0.00000 0.00000
vn -1.00000 0.00000 0.00000
vn 0.00000 0.00000 -1.00000
vn 0.00000 0.00000 1.00000
vn 0.00000 -1.00000 0.00000
vn 0.00000 1.00000 0.00000
vn 1.00000 0.00000 0.00000
vn -1.00000 0.00000 0.00000
vn 0.00000 0.00000 -1.00000
vn 0.00000 0.00000 1.00000
vn 0.00000 -1.00000 0.00000
vn 0.00000 1.00000 0.00000
vn 1.00000 0.00000 0.00000
vn -1.00000 0.00000 0.00000
g madera
usemtl madera
f 1//1 2//1 3//1 4//1
f 5//2 6//2 7//2 8//2
f 9//3 10//3 11//3 12//3
f 13//4 14//4 15//4 16//4
f 17//5 18//5 19//5 20//5
f 21//6 22//6 23//6 24//6
f 25//7 26//7 27//7 28//7
f 29//8 30//8 31//8 32//8
f 33//9 34//9 35//9 36//9
f 37//10 38//10 39//10 40//10
f 41//11 42//11 43//11 44//11
f 45//12 46//12 47//12 48//12
f 49//13 50//13 51//13 52//13
f 53//14 54//14 55//14 56//14
f 57//15 58//15 59//15 60//15
f 61//16 62//16 63//16 64//16
f 65//17 66//17 67//17 68//17
f 69//18 70//18 71//18 72//18
f 73//19 74//19 75//19 76//19
f 77//20 78//20 79//20 80//20
f 81//21 82//21 83//21 84//21
f 85//22 86//22 87//22 88//22
f 89//23 90//23 91//23 92//23
f 93//24 94//24 95//24 96//24
f 97//25 98//25 99//25 100//25
f 101//26 102//26 103//26 104//26
f 105//27 106//27 107//27 108//27
f 109//28 110//28 111//28 112//28
f 113//29 114//29 115//29 116//29
f 117//30 118//30 119//30 120//30
