# Planta - low poly para Flash Point Fire Rescue
mtllib FireRescue_Props.mtl
v 0.08500 0.00000 0.00000
v 0.06877 0.00000 0.04996
v 0.08899 0.13000 0.06466
v 0.11000 0.13000 0.00000
v 0.06877 0.00000 0.04996
v 0.02627 0.00000 0.08084
v 0.03399 0.13000 0.10462
v 0.08899 0.13000 0.06466
v 0.02627 0.00000 0.08084
v -0.02627 0.00000 0.08084
v -0.03399 0.13000 0.10462
v 0.03399 0.13000 0.10462
v -0.02627 0.00000 0.08084
v -0.06877 0.00000 0.04996
v -0.08899 0.13000 0.06466
v -0.03399 0.13000 0.10462
v -0.06877 0.00000 0.04996
v -0.08500 0.00000 0.00000
v -0.11000 0.13000 0.00000
v -0.08899 0.13000 0.06466
v -0.08500 0.00000 0.00000
v -0.06877 0.00000 -0.04996
v -0.08899 0.13000 -0.06466
v -0.11000 0.13000 0.00000
v -0.06877 0.00000 -0.04996
v -0.02627 0.00000 -0.08084
v -0.03399 0.13000 -0.10462
v -0.08899 0.13000 -0.06466
v -0.02627 0.00000 -0.08084
v 0.02627 0.00000 -0.08084
v 0.03399 0.13000 -0.10462
v -0.03399 0.13000 -0.10462
v 0.02627 0.00000 -0.08084
v 0.06877 0.00000 -0.04996
v 0.08899 0.13000 -0.06466
v 0.03399 0.13000 -0.10462
v 0.06877 0.00000 -0.04996
v 0.08500 0.00000 0.00000
v 0.11000 0.13000 0.00000
v 0.08899 0.13000 -0.06466
v 0.06877 0.00000 -0.04996
v 0.02627 0.00000 -0.08084
v -0.02627 0.00000 -0.08084
v -0.06877 0.00000 -0.04996
v -0.08500 0.00000 0.00000
v -0.06877 0.00000 0.04996
v -0.02627 0.00000 0.08084
v 0.02627 0.00000 0.08084
v 0.06877 0.00000 0.04996
v 0.08500 0.00000 0.00000
v 0.11000 0.13000 0.00000
v 0.08899 0.13000 0.06466
v 0.03399 0.13000 0.10462
v -0.03399 0.13000 0.10462
v -0.08899 0.13000 0.06466
v -0.11000 0.13000 0.00000
v -0.08899 0.13000 -0.06466
v -0.03399 0.13000 -0.10462
v 0.03399 0.13000 -0.10462
v 0.08899 0.13000 -0.06466
v 0.10000 0.12000 0.00000
v 0.07071 0.12000 0.07071
v 0.01414 0.25000 0.01414
v 0.02000 0.25000 0.00000
v 0.07071 0.12000 0.07071
v 0.00000 0.12000 0.10000
v 0.00000 0.25000 0.02000
v 0.01414 0.25000 0.01414
v 0.00000 0.12000 0.10000
v -0.07071 0.12000 0.07071
v -0.01414 0.25000 0.01414
v 0.00000 0.25000 0.02000
v -0.07071 0.12000 0.07071
v -0.10000 0.12000 0.00000
v -0.02000 0.25000 0.00000
v -0.01414 0.25000 0.01414
v -0.10000 0.12000 0.00000
v -0.07071 0.12000 -0.07071
v -0.01414 0.25000 -0.01414
v -0.02000 0.25000 0.00000
v -0.07071 0.12000 -0.07071
v -0.00000 0.12000 -0.10000
v -0.00000 0.25000 -0.02000
v -0.01414 0.25000 -0.01414
v -0.00000 0.12000 -0.10000
v 0.07071 0.12000 -0.07071
v 0.01414 0.25000 -0.01414
v -0.00000 0.25000 -0.02000
v 0.07071 0.12000 -0.07071
v 0.10000 0.12000 0.00000
v 0.02000 0.25000 0.00000
v 0.01414 0.25000 -0.01414
v 0.07071 0.12000 -0.07071
v -0.00000 0.12000 -0.10000
v -0.07071 0.12000 -0.07071
v -0.10000 0.12000 0.00000
v -0.07071 0.12000 0.07071
v 0.00000 0.12000 0.10000
v 0.07071 0.12000 0.07071
v 0.10000 0.12000 0.00000
v 0.02000 0.25000 0.00000
v 0.01414 0.25000 0.01414
v 0.00000 0.25000 0.02000
v -0.01414 0.25000 0.01414
v -0.02000 0.25000 0.00000
v -0.01414 0.25000 -0.01414
v -0.00000 0.25000 -0.02000
v 0.01414 0.25000 -0.01414
v 0.07500 0.19500 0.00000
v 0.05303 0.19500 0.05303
v 0.01061 0.31500 0.01061
v 0.01500 0.31500 0.00000
v 0.05303 0.19500 0.05303
v 0.00000 0.19500 0.07500
v 0.00000 0.31500 0.01500
v 0.01061 0.31500 0.01061
v 0.00000 0.19500 0.07500
v -0.05303 0.19500 0.05303
v -0.01061 0.31500 0.01061
v 0.00000 0.31500 0.01500
v -0.05303 0.19500 0.05303
v -0.07500 0.19500 0.00000
v -0.01500 0.31500 0.00000
v -0.01061 0.31500 0.01061
v -0.07500 0.19500 0.00000
v -0.05303 0.19500 -0.05303
v -0.01061 0.31500 -0.01061
v -0.01500 0.31500 0.00000
v -0.05303 0.19500 -0.05303
v -0.00000 0.19500 -0.07500
v -0.00000 0.31500 -0.01500
v -0.01061 0.31500 -0.01061
v -0.00000 0.19500 -0.07500
v 0.05303 0.19500 -0.05303
v 0.01061 0.31500 -0.01061
v -0.00000 0.31500 -0.01500
v 0.05303 0.19500 -0.05303
v 0.07500 0.19500 0.00000
v 0.01500 0.31500 0.00000
v 0.01061 0.31500 -0.01061
v 0.05303 0.19500 -0.05303
v -0.00000 0.19500 -0.07500
v -0.05303 0.19500 -0.05303
v -0.07500 0.19500 0.00000
v -0.05303 0.19500 0.05303
v 0.00000 0.19500 0.07500
v 0.05303 0.19500 0.05303
v 0.07500 0.19500 0.00000
v 0.01500 0.31500 0.00000
v 0.01061 0.31500 0.01061
v 0.00000 0.31500 0.01500
v -0.01061 0.31500 0.01061
v -0.01500 0.31500 0.00000
v -0.01061 0.31500 -0.01061
v -0.00000 0.31500 -0.01500
v 0.01061 0.31500 -0.01061
vn -0.93554 0.17991 -0.30397
vn -0.57819 0.17991 -0.79582
vn 0.00000 0.17991 -0.98368
vn 0.57819 0.17991 -0.79582
vn 0.93554 0.17991 -0.30397
vn 0.93554 0.17991 0.30397
vn 0.57819 0.17991 0.79582
vn -0.00000 0.17991 0.98368
vn -0.57819 0.17991 0.79582
vn -0.93554 0.17991 0.30397
vn 0.00000 1.00000 0.00000
vn 0.00000 -1.00000 0.00000
vn -0.80315 -0.49425 -0.33268
vn -0.33268 -0.49425 -0.80315
vn 0.33268 -0.49425 -0.80315
vn 0.80315 -0.49425 -0.33268
vn 0.80315 -0.49425 0.33268
vn 0.33268 -0.49425 0.80315
vn -0.33268 -0.49425 0.80315
vn -0.80315 -0.49425 0.33268
vn 0.00000 1.00000 0.00000
vn 0.00000 -1.00000 0.00000
vn -0.83872 -0.41936 -0.34741
vn -0.34741 -0.41936 -0.83872
vn 0.34741 -0.41936 -0.83872
vn 0.83872 -0.41936 -0.34741
vn 0.83872 -0.41936 0.34741
vn 0.34741 -0.41936 0.83872
vn -0.34741 -0.41936 0.83872
vn -0.83872 -0.41936 0.34741
vn 0.00000 1.00000 0.00000
vn 0.00000 -1.00000 0.00000
g maceta
usemtl maceta
f 1//1 2//1 3//1 4//1
f 5//2 6//2 7//2 8//2
f 9//3 10//3 11//3 12//3
f 13//4 14//4 15//4 16//4
f 17//5 18//5 19//5 20//5
f 21//6 22//6 23//6 24//6
f 25//7 26//7 27//7 28//7
f 29//8 30//8 31//8 32//8
f 33//9 34//9 35//9 36//9
f 37//10 38//10 39//10 40//10
f 41//11 42//11 43//11 44//11 45//11 46//11 47//11 48//11 49//11 50//11
f 51//12 52//12 53//12 54//12 55//12 56//12 57//12 58//12 59//12 60//12
g hoja
usemtl hoja
f 61//13 62//13 63//13 64//13
f 65//14 66//14 67//14 68//14
f 69//15 70//15 71//15 72//15
f 73//16 74//16 75//16 76//16
f 77//17 78//17 79//17 80//17
f 81//18 82//18 83//18 84//18
f 85//19 86//19 87//19 88//19
f 89//20 90//20 91//20 92//20
f 93//21 94//21 95//21 96//21 97//21 98//21 99//21 100//21
f 101//22 102//22 103//22 104//22 105//22 106//22 107//22 108//22
f 109//23 110//23 111//23 112//23
f 113//24 114//24 115//24 116//24
f 117//25 118//25 119//25 120//25
f 121//26 122//26 123//26 124//26
f 125//27 126//27 127//27 128//27
f 129//28 130//28 131//28 132//28
f 133//29 134//29 135//29 136//29
f 137//30 138//30 139//30 140//30
f 141//31 142//31 143//31 144//31 145//31 146//31 147//31 148//31
f 149//32 150//32 151//32 152//32 153//32 154//32 155//32 156//32
